<svg t="1721031224139" class="icon" viewBox="0 0 1024 1024" version="1.1" xmlns="http://www.w3.org/2000/svg" p-id="7445" width="200" height="200"><path d="M679.253333 402.363733l-60.484266 158.651734-60.347734-158.651734a30.037333 30.037333 0 0 0-30.446933-18.6368 29.764267 29.764267 0 0 0-30.446933 18.6368l-60.416 158.651734-60.416-158.651734a30.5152 30.5152 0 0 0-38.843734-17.271466 28.945067 28.945067 0 0 0-17.954133 37.546666l88.814933 233.2672c4.369067 11.4688 15.701333 19.114667 28.398934 19.114667a30.3104 30.3104 0 0 0 28.4672-19.114667l62.395733-163.908266 62.395733 163.84c4.437333 11.605333 15.701333 19.182933 28.398934 19.182933a30.3104 30.3104 0 0 0 28.4672-19.114667l88.746666-233.2672a28.945067 28.945067 0 0 0-17.885866-37.546666 30.446933 30.446933 0 0 0-38.912 17.271466zM898.730667 797.969067l-51.882667-29.218134c-28.672-16.1792-52.224-3.072-52.224 29.0816v0.273067H643.208533a29.832533 29.832533 0 0 0-30.3104 29.354667c0 16.1792 13.585067 29.218133 30.3104 29.218133h151.825067c1.092267 30.5152 24.029867 43.076267 52.224 27.648l51.063467-27.989333c29.013333-15.906133 29.149867-42.1888 0.4096-58.368z" fill="#333333" p-id="7446"></path><path d="M810.666667 913.134933l-0.477867 0.068267H201.796267c-19.8656 0-36.727467-11.6736-36.727467-25.6V269.243733h154.965333c51.268267 0 92.910933-39.389867 92.910934-87.8592V93.525333h397.243733c19.797333 0 36.522667 11.741867 36.522667 25.668267v620.066133h61.986133V119.261867c0-46.421333-44.168533-84.241067-98.5088-84.241067H328.362667l-225.28 194.56v658.090667c0 46.2848 44.2368 84.104533 98.7136 84.104533h608.392533c43.758933 0 80.554667-24.712533 93.320533-58.5728h-92.842666zM350.890667 94.890667v86.562133c0 16.110933-13.858133 29.2864-30.9248 29.2864H216.814933l134.144-115.848533z" fill="#333333" p-id="7447"></path></svg>
